<svg xmlns="http://www.w3.org/2000/svg" width="24" height="24" viewBox="0 0 24 24" fill="currentColor" stroke="none">
    <path d="M15 4.5A2.25 2.25 0 1015 0a2.25 2.25 0 000 4.5zM7.58 14.881L6.884 16.5H3.75a1.5 1.5 0 000 3h3.63c.903 0 1.715-.537 2.068-1.364l.412-.962-.5-.295a4.464 4.464 0 01-1.78-1.998zM20.25 10.5h-2.064l-1.221-2.497c-.586-1.197-1.662-2.073-2.896-2.387l-3.332-.991a4.481 4.481 0 00-3.79.803l-1.86 1.426a1.499 1.499 0 101.826 2.38l1.86-1.426c.36-.276.818-.375 1.185-.287l.69.204-1.757 4.097a3.008 3.008 0 001.233 3.764l3.983 2.352-1.287 4.112a1.5 1.5 0 102.862.897l1.484-4.737a2.26 2.26 0 00-1.015-2.55l-2.87-1.694 1.467-3.67.95 1.943a2.264 2.264 0 002.021 1.26h2.531a1.5 1.5 0 000-3z"/>
</svg>
